<?xml version="1.0" standalone="no"?>
<!DOCTYPE svg PUBLIC "-//W3C//DTD SVG 20010904//EN"
 "http://www.w3.org/TR/2001/REC-SVG-20010904/DTD/svg10.dtd">
<svg version="1.0" xmlns="http://www.w3.org/2000/svg"
 width="1252.000000pt" height="213.000000pt" viewBox="0 0 1252.000000 213.000000"
 preserveAspectRatio="xMidYMid meet">
<metadata>
Created by potrace 1.15, written by Peter Selinger 2001-2017
</metadata>
<g transform="translate(0.000000,213.000000) scale(0.100000,-0.100000)"
fill="#000000" stroke="none">
<path d="M2840 1725 l0 -125 760 0 760 0 0 125 0 125 -760 0 -760 0 0 -125z
m260 -5 c0 -83 -1 -90 -20 -90 -16 0 -20 7 -20 35 0 31 -3 35 -25 35 -22 0
-25 -4 -25 -35 l0 -35 -65 0 -65 0 0 90 0 90 110 0 110 0 0 -90z m871 6 c21
-46 39 -87 39 -90 0 -15 -40 -4 -50 14 -7 13 -21 20 -40 20 -19 0 -33 -7 -40
-20 -10 -19 -50 -29 -50 -12 0 22 76 172 88 172 7 0 31 -38 53 -84z m-677 52
c10 -14 12 -26 6 -39 -7 -12 -6 -19 5 -23 9 -3 15 -18 15 -35 0 -38 -26 -53
-83 -49 l-42 3 -3 83 -3 82 45 0 c35 0 48 -5 60 -22z"/>
<path d="M10996 1643 c3 -10 78 -99 168 -198 l163 -180 -158 -3 c-131 -2 -159
-5 -159 -17 0 -12 27 -15 154 -17 l154 -3 -154 -178 c-143 -165 -166 -197
-146 -197 4 0 81 86 171 190 l164 191 21 -20 c12 -11 95 -103 186 -205 91
-101 173 -185 183 -185 16 -1 17 25 17 419 0 365 -2 420 -15 420 -13 0 -15
-53 -17 -399 l-3 -398 -360 398 c-198 219 -363 399 -367 399 -3 0 -4 -8 -2
-17z"/>
<path d="M4070 1400 l0 -170 105 0 c92 0 108 -3 125 -20 25 -25 26 -61 1 -91
-16 -20 -28 -24 -74 -24 -46 0 -63 5 -101 32 -50 35 -50 35 -86 -36 -21 -43
-21 -45 -4 -58 10 -7 42 -22 72 -33 196 -74 372 7 372 170 0 111 -80 180 -210
180 l-60 0 0 45 0 45 125 0 126 0 -3 63 -3 62 -192 3 -193 2 0 -170z"/>
<path d="M1115 1330 c3 -11 2 -20 -3 -20 -15 0 -20 -55 -6 -68 6 -6 15 -8 18
-5 10 10 7 -79 -5 -120 -11 -41 -6 -58 12 -40 6 6 13 45 16 87 4 58 9 76 21
76 11 0 14 -13 10 -65 -3 -51 -1 -62 9 -53 8 6 13 33 13 65 0 38 3 52 11 47 9
-5 10 1 5 19 -5 21 -3 25 9 21 20 -8 19 13 -1 24 -11 6 -13 11 -5 16 19 12 12
24 -14 22 -14 0 -25 -4 -25 -8 0 -5 -5 -8 -11 -8 -5 0 -7 5 -3 11 4 8 0 9 -15
4 -12 -4 -21 -2 -21 4 0 6 -5 11 -11 11 -6 0 -8 -9 -4 -20z"/>
<path d="M4512 1293 l3 -36 50 -1 50 -1 3 -137 3 -138 44 0 44 0 3 138 3 137
50 0 50 0 3 38 3 37 -156 0 -156 0 3 -37z"/>
<path d="M4850 1155 l0 -175 50 0 50 0 0 65 0 65 70 0 70 0 0 -65 0 -65 45 0
45 0 0 175 0 175 -45 0 -45 0 0 -70 0 -70 -70 0 -70 0 0 70 0 70 -50 0 -50 0
0 -175z"/>
<path d="M5400 1155 l0 -175 46 0 45 0 -3 100 c-2 55 -1 100 2 100 3 -1 39
-46 80 -100 74 -99 75 -100 117 -100 l43 0 0 175 0 175 -45 0 -44 0 -3 -102
-3 -102 -75 102 c-74 101 -75 101 -117 102 l-43 0 0 -175z"/>
<path d="M5907 1323 c-4 -7 -84 -194 -134 -310 l-13 -33 49 0 c46 0 50 2 60
30 10 30 11 30 86 30 75 0 76 0 86 -30 10 -28 14 -30 61 -30 40 0 49 3 45 15
-4 8 -36 86 -73 175 l-67 160 -48 0 c-26 0 -50 -3 -52 -7z"/>
<path d="M6120 1292 l0 -38 48 0 47 1 3 -137 3 -138 44 0 44 0 3 138 3 137 50
1 50 1 3 36 3 37 -150 0 -151 0 0 -38z"/>
<path d="M6460 1155 l0 -175 45 0 45 0 0 175 0 175 -45 0 -45 0 0 -175z"/>
<path d="M6688 1309 c-58 -30 -88 -82 -88 -152 0 -68 17 -106 62 -141 93 -70
222 -51 285 43 60 88 26 209 -71 255 -48 22 -141 20 -188 -5z m167 -91 c60
-71 -2 -184 -88 -162 -15 3 -38 20 -52 36 -44 53 -27 126 37 152 41 18 74 9
103 -26z"/>
<path d="M7020 1155 l0 -175 45 0 44 0 3 102 3 102 75 -102 c74 -101 75 -101
118 -102 l42 0 0 175 0 175 -46 0 -45 0 3 -100 c2 -55 1 -100 -2 -100 -3 1
-38 46 -79 100 l-73 100 -44 0 -44 0 0 -175z"/>
<path d="M7458 1155 l-76 -175 48 0 c43 0 49 3 60 30 12 30 13 30 89 30 76 0
77 0 88 -30 10 -27 15 -30 57 -30 25 0 46 4 46 9 0 5 -31 82 -69 172 l-69 164
-49 3 -49 3 -76 -176z"/>
<path d="M7810 1155 l0 -175 120 0 120 0 0 40 0 40 -75 0 -75 0 0 135 0 135
-45 0 -45 0 0 -175z"/>
<path d="M1080 975 c0 -33 -2 -35 -35 -35 -24 0 -35 -5 -35 -15 0 -10 11 -15
35 -15 34 0 35 -2 35 -36 l0 -36 -27 18 c-15 9 -36 26 -47 36 -11 10 -27 17
-35 16 -23 -5 -25 -29 -2 -35 12 -3 21 -10 21 -15 0 -5 6 -8 13 -6 6 1 25 -5
41 -14 l30 -16 -33 -17 c-18 -9 -36 -13 -39 -9 -4 4 -1 9 6 11 17 6 15 23 -2
23 -17 0 -32 -58 -19 -71 14 -14 73 -23 73 -11 0 6 -9 12 -21 14 -18 3 -17 5
10 21 l31 18 0 -60 c0 -48 3 -61 15 -61 12 0 15 13 15 55 0 58 5 64 36 40 17
-13 17 -14 2 -15 -10 0 -18 -4 -18 -10 0 -11 15 -12 48 -4 19 6 23 12 20 42
-2 20 -9 37 -17 40 -9 3 -11 -2 -6 -17 8 -25 2 -26 -31 -5 l-25 17 21 14 c12
8 27 16 33 18 44 11 57 19 57 36 0 12 -7 19 -20 19 -11 0 -20 -7 -20 -16 0 -8
-4 -13 -10 -9 -5 3 -18 -3 -30 -15 -28 -28 -40 -25 -40 10 0 28 3 30 35 30 24
0 35 5 35 15 0 10 -11 15 -35 15 -33 0 -35 2 -35 35 0 24 -5 35 -15 35 -10 0
-15 -11 -15 -35z"/>
<path d="M8056 830 c-73 -29 -82 -40 -61 -81 10 -19 19 -35 20 -37 1 -1 22 9
46 23 52 29 94 32 107 8 15 -29 -1 -55 -92 -150 -76 -80 -86 -95 -86 -127 l0
-36 155 0 155 0 0 45 0 45 -80 0 c-44 0 -80 2 -80 4 0 2 25 30 55 63 94 98
114 156 73 208 -44 56 -125 69 -212 35z"/>
<path d="M8457 836 c-48 -18 -64 -32 -87 -76 -59 -115 -20 -276 77 -316 42
-18 114 -18 156 0 87 36 129 160 96 281 -27 96 -139 147 -242 111z m120 -93
c32 -41 27 -179 -8 -214 -24 -24 -64 -24 -88 0 -43 43 -35 193 12 226 25 18
66 12 84 -12z"/>
<path d="M8744 841 c-2 -2 -4 -22 -4 -43 0 -37 1 -38 35 -38 l35 0 0 -165 0
-165 55 0 55 0 -2 206 -3 206 -83 1 c-46 1 -86 0 -88 -2z"/>
<path d="M9074 836 c-68 -30 -98 -110 -69 -184 9 -22 29 -49 43 -58 38 -25
123 -25 151 0 21 19 21 19 21 -6 0 -30 -32 -66 -67 -75 -16 -4 -45 0 -71 9
l-43 16 -20 -39 -20 -39 28 -12 c43 -17 137 -22 176 -9 88 29 141 145 118 258
-6 30 -20 68 -32 85 -42 58 -145 84 -215 54z"/>
<path d="M2757 784 c-4 -4 -7 -85 -7 -181 l0 -173 140 0 140 0 0 40 0 40 -95
0 -95 0 0 30 0 30 85 0 85 0 0 41 0 40 -82 -2 -83 -2 -3 31 -3 32 96 0 96 0
-3 38 -3 37 -131 3 c-71 1 -133 -1 -137 -4z"/>
<path d="M3090 610 l0 -180 45 0 44 0 3 102 3 102 75 -102 c75 -101 75 -101
118 -102 l42 0 -2 178 -3 177 -40 0 -40 0 -3 -104 -3 -103 -80 106 c-78 104
-80 106 -119 106 l-40 0 0 -180z"/>
<path d="M3585 775 c-149 -53 -161 -257 -19 -325 52 -26 133 -24 197 3 l37 16
0 70 0 71 -40 0 -40 0 0 -44 c0 -49 -9 -56 -67 -56 -96 0 -128 141 -42 186 37
19 67 18 109 -4 l34 -19 25 30 25 30 -23 18 c-47 38 -128 48 -196 24z"/>
<path d="M3867 783 c-4 -3 -7 -84 -7 -180 l0 -173 120 0 120 0 0 40 0 40 -75
0 -75 0 0 140 0 140 -38 0 c-21 0 -42 -3 -45 -7z"/>
<path d="M4145 778 c-3 -8 -4 -88 -3 -178 l3 -165 48 -3 47 -3 -2 178 -3 178
-43 3 c-28 2 -44 -1 -47 -10z"/>
<path d="M4362 773 c-18 -9 -40 -29 -48 -44 -35 -68 -5 -117 90 -149 71 -23
96 -44 78 -62 -18 -18 -74 -13 -120 11 -23 12 -44 21 -46 21 -6 0 -36 -55 -36
-64 0 -12 83 -47 124 -52 61 -9 110 2 146 32 25 22 30 33 30 70 0 57 -28 87
-101 109 -69 20 -83 29 -76 49 8 20 56 21 104 1 45 -19 40 -20 58 15 22 43 20
48 -37 65 -66 19 -124 19 -166 -2z"/>
<path d="M4637 783 c-4 -3 -7 -84 -7 -180 l0 -173 45 0 44 0 3 68 3 67 70 0
70 0 3 -67 3 -68 45 0 44 0 -2 178 -3 177 -42 3 -42 3 -3 -73 -3 -73 -72 -3
-73 -3 0 76 0 75 -38 0 c-21 0 -42 -3 -45 -7z"/>
<path d="M5277 776 c-45 -17 -83 -49 -104 -90 -22 -42 -14 -143 15 -183 54
-76 178 -95 262 -39 l42 28 -27 28 -27 29 -37 -20 c-43 -23 -63 -24 -100 -5
-47 25 -63 83 -36 135 26 52 103 64 148 23 17 -15 20 -14 49 15 l31 31 -40 26
c-49 33 -123 42 -176 22z"/>
<path d="M5637 783 c-9 -15 -147 -342 -147 -347 0 -3 20 -6 46 -6 41 0 46 3
55 30 11 30 11 30 90 30 80 0 80 0 90 -30 10 -28 15 -30 60 -30 27 0 49 2 49
4 0 1 -33 81 -73 177 l-74 174 -45 3 c-26 2 -48 -1 -51 -5z"/>
<path d="M5918 784 c-5 -4 -8 -86 -8 -181 l0 -174 47 3 47 3 0 45 c1 45 1 45
36 45 32 0 37 -5 60 -47 l25 -48 53 0 c59 0 58 -4 9 68 l-29 44 20 21 c63 70
54 164 -21 204 -34 18 -225 32 -239 17z"/>
<path d="M6280 610 l0 -180 40 0 40 0 0 100 c0 55 4 100 8 100 4 0 41 -45 82
-100 74 -100 75 -101 113 -98 l38 3 0 175 0 175 -40 3 -40 3 -3 -106 -3 -106
-80 106 c-77 101 -82 105 -117 105 l-38 0 0 -180z"/>
<path d="M6677 784 c-4 -4 -7 -86 -7 -181 l0 -174 48 3 47 3 0 175 0 175 -40
3 c-23 2 -44 0 -48 -4z"/>
<path d="M6807 783 c-3 -5 25 -84 62 -178 l66 -170 49 0 49 0 69 174 c37 96
68 176 68 178 0 2 -21 3 -47 1 l-48 -3 -40 -117 c-22 -64 -43 -119 -46 -122
-3 -4 -23 44 -44 106 -21 62 -42 119 -48 126 -10 13 -83 17 -90 5z"/>
<path d="M7220 623 c-39 -92 -74 -174 -77 -180 -4 -9 8 -13 42 -13 43 0 48 3
58 30 11 30 12 30 90 30 78 0 79 0 90 -30 10 -28 15 -30 60 -30 58 0 61 -18
-32 200 l-66 155 -46 3 -46 3 -73 -168z"/>
<path d="M7565 778 c-3 -8 -4 -88 -3 -178 l3 -165 123 -3 122 -3 0 41 0 40
-75 0 -74 0 -3 138 -3 137 -43 3 c-28 2 -44 -1 -47 -10z"/>
<path d="M9070 352 c0 -19 31 -35 65 -34 l35 1 0 -89 c0 -76 -3 -90 -16 -90
-11 0 -14 5 -10 17 4 9 8 47 10 84 2 53 -1 66 -11 62 -8 -3 -17 -18 -20 -34
-3 -15 -11 -30 -19 -33 -8 -3 -14 -12 -14 -20 0 -10 6 -13 15 -10 24 10 19
-49 -6 -72 -32 -29 -41 -51 -29 -74 15 -29 100 -26 100 3 0 7 -4 7 -12 -1 -17
-17 -67 -15 -74 3 -14 36 42 58 86 35 14 -8 27 -5 53 10 19 12 39 19 43 18 13
-4 14 3 14 107 0 89 -1 96 -24 110 -20 14 -34 14 -90 4 -52 -9 -70 -8 -81 1
-9 7 -15 8 -15 2z"/>
<path d="M9882 350 c-51 -21 -41 -80 19 -104 47 -19 46 -31 0 -21 -17 4 -39
17 -50 31 -12 16 -20 20 -24 11 -10 -27 12 -56 53 -68 59 -18 50 -32 -39 -60
-54 -17 -91 -61 -75 -87 20 -31 44 -25 89 21 40 39 47 43 62 31 27 -20 39 -17
78 21 43 44 47 84 10 113 l-25 20 20 25 c31 39 23 46 -9 8 l-28 -35 -47 18
c-38 15 -47 22 -44 40 4 29 41 33 68 6 21 -21 22 -21 41 -4 19 17 19 18 2 25
-39 14 -79 18 -101 9z"/>
<path d="M8576 327 c-27 -27 -33 -51 -16 -62 5 -3 7 0 4 8 -12 33 52 59 101
41 14 -6 13 -9 -6 -30 -13 -14 -17 -24 -10 -24 9 0 12 -17 9 -60 -2 -40 1 -60
8 -60 18 0 24 25 24 96 0 51 3 64 15 64 13 0 15 -15 13 -92 l-3 -93 -30 2
c-69 5 -99 101 -53 166 l23 32 -25 -16 c-37 -23 -62 -77 -55 -119 11 -69 95
-112 154 -80 22 11 36 41 18 37 -20 -4 -22 139 -2 170 9 14 15 26 13 28 -2 2
-38 6 -80 10 -74 7 -78 6 -102 -18z"/>
</g>
</svg>
